<?xml version="1.0" standalone="no"?><!DOCTYPE svg PUBLIC "-//W3C//DTD SVG 1.1//EN" "http://www.w3.org/Graphics/SVG/1.1/DTD/svg11.dtd"><svg height="1024" node-id="1" sillyvg="true" template-height="1024" template-width="1024" version="1.1" viewBox="0 0 1024 1024" width="1024" xmlns="http://www.w3.org/2000/svg" xmlns:xlink="http://www.w3.org/1999/xlink"><defs node-id="35"><radialGradient cx="0.5" cy="0.27637437" fx="0.5" fy="0.27637437" gradientUnits="objectBoundingBox" id="radialGradient-1" node-id="5" r="0.72362566" spreadMethod="pad"><stop offset="0" stop-color="#fff5aa"></stop><stop offset="0.27121985" stop-color="#ffeb96"></stop><stop offset="1" stop-color="#ffa60f"></stop></radialGradient><radialGradient cx="0.75765634" cy="0.31625202" fx="0.75765634" fy="0.31625202" gradientTransform="matrix(0.60505249 0.54603058 -0.3868799 0.82188457 0.2180647 -0.07599787)" gradientUnits="objectBoundingBox" id="radialGradient-2" node-id="9" r="1.2522155" spreadMethod="pad"><stop offset="0" stop-color="#ffc6cc"></stop><stop offset="1" stop-color="#ff96a5"></stop></radialGradient><radialGradient cx="0.49694312" cy="0.11637818" fx="0.49694312" fy="0.11637818" gradientTransform="matrix(0 1 -2.02330546 0 0.73241124 -0.380565)" gradientUnits="objectBoundingBox" id="radialGradient-3" node-id="12" r="0.59844244" spreadMethod="pad"><stop offset="0" stop-color="#525252"></stop><stop offset="0.38796386" stop-color="#302838"></stop><stop offset="1" stop-color="#241e2b"></stop></radialGradient><radialGradient cx="0.5" cy="0.21664958" fx="0.5" fy="0.21664958" gradientTransform="matrix(-0.00022468 0.99999989 -2.16970502 -0.00211624 0.97017893 -0.28289146)" gradientUnits="objectBoundingBox" id="radialGradient-4" node-id="16" r="0.64787793" spreadMethod="pad"><stop offset="0" stop-color="#525252"></stop><stop offset="0.38796386" stop-color="#302838"></stop><stop offset="1" stop-color="#241e2b"></stop></radialGradient><radialGradient cx="0.5" cy="0.4459754" fx="0.5" fy="0.4459754" gradientTransform="matrix(0 1 -0.74616535 0 0.83277109 -0.054025)" gradientUnits="objectBoundingBox" id="radialGradient-5" node-id="20" r="0.674985" spreadMethod="pad"><stop offset="0" stop-color="#3d220f"></stop><stop offset="1" stop-color="#482412"></stop></radialGradient><linearGradient gradientUnits="objectBoundingBox" id="linearGradient-6" node-id="23" spreadMethod="pad" x1="0.5" x2="0.5" y1="0" y2="1"><stop offset="0" stop-color="#de7378"></stop><stop offset="1" stop-color="#d35258"></stop></linearGradient></defs><path d="M 901.72 512.34 C 901.72 615.61 860.70 714.65 787.68 787.68 C 714.65 860.70 615.61 901.72 512.34 901.72 C 409.07 901.72 310.03 860.70 237.01 787.68 C 163.99 714.65 122.96 615.61 122.96 512.34 C 122.96 409.07 163.99 310.03 237.01 237.01 C 310.03 163.99 409.07 122.96 512.34 122.96 C 615.61 122.96 714.65 163.99 787.68 237.01 C 860.70 310.03 901.72 409.07 901.72 512.34 Z" fill="url(#radialGradient-1)" fill-rule="evenodd" id="椭圆形" node-id="27" stroke="none" target-height="778.75995" target-width="778.75995" target-x="122.96" target-y="122.96"></path><path d="M 860.74 413.29 C 860.74 437.81 833.21 457.69 799.26 457.69 C 765.30 457.69 737.77 437.81 737.77 413.29 C 737.77 388.77 765.30 368.89 799.26 368.89 C 833.21 368.89 860.74 388.77 860.74 413.29 Z" fill="url(#radialGradient-2)" fill-rule="evenodd" id="椭圆形" node-id="28" stroke="none" target-height="88.79999" target-width="122.96997" target-x="737.77" target-y="368.89"></path><g node-id="78"><path d="M 170.78 413.29 L 171.12 417.85 L 172.03 422.23 L 173.52 426.46 L 175.61 430.57 L 178.17 434.40 L 181.19 438.02 L 184.72 441.45 L 188.79 444.69 L 193.08 447.51 L 197.75 450.04 L 202.82 452.28 L 208.33 454.20 L 213.90 455.69 L 219.73 456.77 L 225.84 457.44 L 232.26 457.69 L 238.68 457.44 L 244.80 456.77 L 250.63 455.69 L 256.19 454.20 L 261.70 452.28 L 266.77 450.04 L 271.44 447.51 L 275.74 444.69 L 279.81 441.45 L 283.33 438.02 L 286.36 434.40 L 288.91 430.57 L 291.01 426.46 L 292.50 422.23 L 293.41 417.85 L 293.74 413.29 L 293.41 408.73 L 292.50 404.35 L 291.01 400.12 L 288.91 396.01 L 286.36 392.18 L 283.33 388.56 L 279.81 385.13 L 275.74 381.89 L 271.44 379.07 L 266.77 376.54 L 261.70 374.30 L 256.19 372.38 L 250.63 370.89 L 244.80 369.81 L 238.68 369.14 L 232.26 368.89 L 225.84 369.14 L 219.73 369.81 L 213.90 370.89 L 208.33 372.38 L 202.82 374.30 L 197.75 376.54 L 193.08 379.07 L 188.79 381.89 L 184.72 385.13 L 181.19 388.56 L 178.17 392.18 L 175.61 396.01 L 173.52 400.12 L 172.03 404.35 L 171.12 408.73 L 170.78 413.29 Z" fill="url(#radialGradient-2)" fill-rule="evenodd" group-id="1" id="椭圆形备份-2" node-id="29" stroke="none" target-height="88.79999" target-width="122.95999" target-x="170.78" target-y="368.89"></path></g><path d="M 339.27 278.85 C 381.32 278.85 411.26 302.67 427.20 347.66 C 429.72 354.77 425.99 362.58 418.88 365.10 C 411.77 367.62 403.96 363.90 401.44 356.78 C 389.18 322.17 369.08 306.18 339.27 306.18 C 309.19 306.18 287.60 322.51 272.92 357.51 C 270.00 364.46 261.99 367.74 255.03 364.82 C 248.08 361.90 244.80 353.89 247.72 346.93 C 266.44 302.33 297.48 278.85 339.27 278.85 Z" fill="url(#radialGradient-3)" fill-rule="nonzero" id="路径-50" node-id="30" stroke="none" target-height="88.889984" target-width="184.92" target-x="244.8" target-y="278.85"></path><path d="M 694.49 278.85 C 736.54 278.85 766.48 302.67 782.42 347.66 C 784.94 354.77 781.22 362.58 774.11 365.10 C 766.99 367.62 759.19 363.90 756.67 356.78 C 744.40 322.17 724.30 306.18 694.49 306.18 C 664.42 306.18 642.83 322.51 628.14 357.51 C 625.22 364.46 617.22 367.74 610.26 364.82 C 603.30 361.90 600.03 353.89 602.95 346.93 C 621.66 302.33 652.70 278.85 694.49 278.85 Z" fill="url(#radialGradient-4)" fill-rule="nonzero" id="路径-50备份" node-id="31" stroke="none" target-height="88.889984" target-width="184.90997" target-x="600.03" target-y="278.85"></path><path d="M 512.34 470.02 L 699.92 470.02 C 733.88 470.02 761.40 497.54 761.41 531.50 C 761.41 534.10 761.24 536.71 760.91 539.30 C 740.37 700.05 659.02 780.42 516.85 780.42 C 375.17 780.42 291.96 700.58 267.23 540.91 C 262.03 507.36 285.02 475.94 318.57 470.74 C 321.69 470.26 324.83 470.02 327.98 470.02 L 512.34 470.02 L 512.34 470.02 Z" fill="url(#radialGradient-5)" fill-rule="evenodd" id="蒙版" node-id="32" stroke="none" target-height="310.4" target-width="499.37997" target-x="262.03" target-y="470.02"></path><path d="M 724.61 664.94 L 724.60 665.00 C 684.46 741.95 615.21 780.42 516.85 780.42 C 418.16 780.42 347.84 741.68 305.89 664.20 C 376.58 657.21 423.74 657.45 447.40 664.94 C 464.56 670.36 478.11 676.36 488.05 682.93 L 488.62 683.31 C 495.22 687.74 503.78 687.96 510.60 683.87 C 534.61 669.45 563.16 660.22 596.27 656.16 C 634.98 651.41 677.76 654.34 724.61 664.94 Z" fill="url(#linearGradient-6)" fill-rule="evenodd" id="形状结合" node-id="33" stroke="none" target-height="129.01001" target-width="418.71997" target-x="305.89" target-y="651.41"></path></svg>